<svg width="200" height="100.63376259603916" viewBox="0 0 370.0169491525424 94.03080256951425"
  class="looka-1j8o68f">
  <defs id="SvgjsDefs2101"></defs>
  <g id="SvgjsG2102" featurekey="symbolFeature-0"
    transform="matrix(1.617873651771957,0,0,1.617873651771957,-8.08936748739751,-4.659491345768534)"
    fill="#000000">
    <title xmlns="http://www.w3.org/2000/svg">BUSINESS</title>
    <g xmlns="http://www.w3.org/2000/svg" data-name="Layer 35">
      <path
        d="M38.66,36.75a1,1,0,0,0-.41-.09c-9.32,0-17.61-5.2-21.16-13.1l3.83-.78-6.61-7.47-3.17,9.46,4-.8A24.79,24.79,0,0,0,36.3,38.58a1,1,0,0,0,.36.07A21.37,21.37,0,0,1,58,60a1,1,0,0,0,2,0A23.37,23.37,0,0,0,38.66,36.75Z"></path>
      <path
        d="M14.31,13.2A5.16,5.16,0,1,0,9.16,8,5.16,5.16,0,0,0,14.31,13.2Zm0-8.31A3.16,3.16,0,1,1,11.16,8,3.16,3.16,0,0,1,14.31,4.88Z"></path>
      <path
        d="M39.69,20.27a1,1,0,0,0,1.4-.2L43.41,17l2.32,3.09a1,1,0,0,0,1.6-1.2l-2.67-3.56,2.67-3.56a1,1,0,0,0-1.6-1.2l-2.32,3.09-2.32-3.09a1,1,0,0,0-1.6,1.2l2.67,3.56-2.67,3.56A1,1,0,0,0,39.69,20.27Z"></path>
      <path
        d="M12.83,33.22a1,1,0,0,0-1.4.2L9.12,36.51,6.8,33.42a1,1,0,0,0-1.6,1.2l2.67,3.56L5.2,41.73a1,1,0,1,0,1.6,1.2l2.32-3.09,2.32,3.09a1,1,0,0,0,1.6-1.2l-2.67-3.56L13,34.62A1,1,0,0,0,12.83,33.22Z"></path>
      <path
        d="M45.05,47.77a1,1,0,0,0-1.4.2l-2.32,3.09L39,48a1,1,0,0,0-1.6,1.2l2.67,3.56-2.67,3.56a1,1,0,1,0,1.6,1.2l2.32-3.09,2.32,3.09a1,1,0,0,0,1.6-1.2l-2.67-3.56,2.67-3.56A1,1,0,0,0,45.05,47.77Z"></path>
    </g>
  </g>
  <g id="SvgjsG2103" featurekey="nameFeature-0"
    transform="matrix(0.9679505169395244,0,0,0.9679505169395244,105.46543200459375,3.9783073950995433)"
    fill="#000000">
    <path
      d="M21.445 11.777000000000001 l5.8594 0 l0 28.223 l-5.8594 0 l0 -11.602 l-11.934 0 l0 11.602 l-5.8594 0 l0 -28.223 l5.8594 0 l0 11.523 l11.934 0 l0 -11.523 z M51.938945312499996 16.934 l-10.469 0 l0 6.4063 l9.2773 0 l0 5.0977 l-9.2773 0 l0 6.3867 l10.469 0 l0 5.1758 l-16.367 0 l0 -28.223 l16.367 0 l0 5.1563 z M77.822203125 40 l-2.0508 -5.8203 l-11.855 0 l-2.0508 5.8203 l-5.9961 0 l10.391 -28.223 l7.168 0 l10.391 28.223 l-5.9961 0 z M65.635203125 29.277 l8.418 0 l-4.1992 -11.973 z M94.8779109375 34.8242 l8.8477 0 l0 5.1758 l-14.707 0 l0 -28.223 l5.8594 0 l0 23.047 z M125.5278125 11.777000000000001 l0 5.1563 l-6.6992 0 l0 23.066 l-5.8008 0 l0 -23.066 l-6.7383 0 l0 -5.1563 l19.238 0 z M148.7155078125 11.777000000000001 l5.8594 0 l0 28.223 l-5.8594 0 l0 -11.602 l-11.934 0 l0 11.602 l-5.8594 0 l0 -28.223 l5.8594 0 l0 11.523 l11.934 0 l0 -11.523 z M174.580453125 11.777000000000001 c5.5273 0 8.9648 4.1016 8.9648 9.1211 c0 5.1367 -3.4375 8.9844 -8.9648 8.9844 l-5.8789 0 l0 10.117 l-5.8594 0 l0 -28.223 l11.738 0 z M173.603453125 24.98 c2.9297 0 4.2969 -1.6211 4.2969 -4.1602 c0 -2.4414 -1.3672 -4.1406 -4.2969 -4.1406 l-4.9023 0 l0 8.3008 l4.9023 0 z M189.4286671875 40 l0 -28.223 l5.8594 0 l0 28.223 l-5.8594 0 z M209.3945125 34.8242 l8.8477 0 l0 5.1758 l-14.707 0 l0 -28.223 l5.8594 0 l0 23.047 z M236.1764140625 40.39063 c-8.3008 0 -14.434 -5.6641 -14.434 -14.512 c0 -8.8672 6.1328 -14.492 14.434 -14.492 c8.2813 0 14.414 5.625 14.414 14.492 c0 8.8477 -6.1328 14.512 -14.414 14.512 z M236.1764140625 35.0195 c4.8633 0 8.5938 -3.418 8.5938 -9.1406 c0 -5.7031 -3.7305 -9.1016 -8.5938 -9.1016 s-8.5938 3.3984 -8.5938 9.1016 c0 5.7227 3.7305 9.1406 8.5938 9.1406 z M273.311015625 11.777000000000001 l0 5.1563 l-6.6992 0 l0 23.066 l-5.8008 0 l0 -23.066 l-6.7383 0 l0 -5.1563 l19.238 0 z"></path>
  </g>
  <g id="SvgjsG2104" featurekey="sloganFeature-0"
    transform="matrix(1.6954654696517046,0,0,1.6954654696517046,134.83045280626607,44.760035165740845)"
    fill="#000000">
    <path
      d="M4.8 13.14 l0 6.86 l-1.08 0 l0 -6.86 l-3.62 -8.14 l1.24 0 l2.9 6.94 l2.94 -6.94 l1.24 0 z M12.68 20.18 c-2.52 0 -3.78 -1.32 -3.78 -3.96 l0 -7.4 c0 -1.3333 0.31666 -2.3266 0.95 -2.98 s1.6567 -0.98 3.07 -0.98 c1.2933 0 2.25 0.33 2.87 0.99 s0.93 1.6367 0.93 2.93 l0 7.44 c0 0.66666 -0.07 1.2467 -0.21 1.74 s-0.37 0.90668 -0.69 1.24 s-0.73666 0.58 -1.25 0.74 s-1.1433 0.24 -1.89 0.24 z M15.66 8.76 c0 -0.33334 -0.04664 -0.67338 -0.13998 -1.02 s-0.24668 -0.66332 -0.46002 -0.94998 s-0.49668 -0.52 -0.85002 -0.7 s-0.79 -0.27 -1.31 -0.27 c-0.57334 0 -1.05 0.08 -1.43 0.24 s-0.68 0.38334 -0.9 0.67 s-0.37666 0.62332 -0.47 1.01 s-0.14 0.80666 -0.14 1.26 l0 7.1 c0 0.34666 0.04 0.7 0.12 1.06 s0.22334 0.69 0.43 0.99 s0.48666 0.54666 0.84 0.74 s0.79668 0.29 1.33 0.29 c0.57334 0 1.05 -0.07666 1.43 -0.23 s0.68334 -0.36334 0.91 -0.63 s0.39 -0.58332 0.49 -0.94998 s0.15 -0.76332 0.15 -1.19 l0 -7.42 z M22.360000000000003 20.18 c-1.2267 0 -2.1768 -0.33336 -2.85 -1 s-1.01 -1.6533 -1.01 -2.96 l0 -11.22 l1.08 0 l0 11.16 c0 0.32 0.04334 0.65666 0.13 1.01 s0.23666 0.67334 0.45 0.96 s0.49668 0.52332 0.85002 0.70998 s0.79 0.28 1.31 0.28 c0.57334 0 1.0467 -0.08334 1.42 -0.25 s0.67334 -0.39666 0.9 -0.69 s0.38666 -0.64 0.48 -1.04 s0.14 -0.82666 0.14 -1.28 l0 -10.86 l1.06 0 l0 11.22 c0 1.3333 -0.32334 2.3266 -0.97 2.98 s-1.6433 0.98 -2.99 0.98 z M35.52 20 l-3.3 -6.22 l-3.06 0 l0 6.22 l-0.98 0 l0 -15 l3.4 0 c0.78666 0 1.46 0.11666 2.02 0.35 s1.02 0.55 1.38 0.95 s0.62666 0.86334 0.8 1.39 s0.26 1.0767 0.26 1.65 c0 0.97334 -0.25 1.85 -0.75 2.63 s-1.1567 1.35 -1.97 1.71 l3.52 6.32 l-1.32 0 z M31.440000000000005 5.92 l-2.28 -0.000019531 l0 6.84 l2.42 0 c0.68 0 1.24 -0.10334 1.68 -0.31 s0.78334 -0.47332 1.03 -0.79998 s0.42 -0.7 0.52 -1.12 s0.15 -0.85 0.15 -1.29 c0 -0.46666 -0.08 -0.9 -0.24 -1.3 s-0.39 -0.75 -0.69 -1.05 s-0.66666 -0.53666 -1.1 -0.71 s-0.93 -0.26 -1.49 -0.26 z M47.96 20 l-0.02 -6.98 l-5.48 0 l0.02 6.98 l-1.16 0 l0 -15 l1.16 0 l-0.02 6.96 l5.48 0 l0.02 -6.96 l1.18 0 l0 15 l-1.18 0 z M50.9 20 l0 -15 l7.36 0 l0 1.16 l-6.32 0 l0 5.7 l6.26 0 l0 0.92 l-6.26 0 l0 6.06 l6.46 0 l0 1.16 l-7.5 0 z M67.32 20 l-1.1 -4.42 l-4.88 0 l-1.1 4.42 l-1 0 l4.14 -15 l0.86 0 l4.12 15 l-1.04 0 z M63.84 5.9399999999999995 l-2.26 8.68 l4.38 0 z M69.32 20 l0 -15 l1.08 0 l0 13.92 l5.1 0 l0 1.08 l-6.18 0 z M79.47999999999999 6.1 l0 13.9 l-1.16 0 l0 -13.9 l-3.26 0 l0 -1.1 l7.68 0 l0 1.1 l-3.26 0 z M90.22 20 l-0.02 -6.98 l-5.48 0 l0.02 6.98 l-1.16 0 l0 -15 l1.16 0 l-0.02 6.96 l5.48 0 l0.02 -6.96 l1.18 0 l0 15 l-1.18 0 z M103.06 20 l-0.02 -6.98 l-5.48 0 l0.02 6.98 l-1.16 0 l0 -15 l1.16 0 l-0.02 6.96 l5.48 0 l0.02 -6.96 l1.18 0 l0 15 l-1.18 0 z M109.86 20.18 c-1.2267 0 -2.1768 -0.33336 -2.85 -1 s-1.01 -1.6533 -1.01 -2.96 l0 -11.22 l1.08 0 l0 11.16 c0 0.32 0.04334 0.65666 0.13 1.01 s0.23666 0.67334 0.45 0.96 s0.49668 0.52332 0.85002 0.70998 s0.79 0.28 1.31 0.28 c0.57334 0 1.0467 -0.08334 1.42 -0.25 s0.67334 -0.39666 0.9 -0.69 s0.38666 -0.64 0.48 -1.04 s0.14 -0.82666 0.14 -1.28 l0 -10.86 l1.06 0 l0 11.22 c0 1.3333 -0.32334 2.3266 -0.97 2.98 s-1.6433 0.98 -2.99 0.98 z M121.98000000000002 18.92 c-0.78666 0.72 -1.8534 1.0801 -3.2 1.0801 l-3.42 0 l0 -15 l2.92 0 c0.8 0 1.4667 0.10334 2 0.31 s0.96 0.48666 1.28 0.84 s0.54334 0.76334 0.67 1.23 s0.19 0.95332 0.19 1.46 c0 0.54666 -0.16334 1.0633 -0.49 1.55 s-0.76332 0.94332 -1.31 1.37 c0.21334 0.13334 0.38 0.23668 0.5 0.31002 s0.23334 0.14334 0.34 0.21 c0.17334 0.14666 0.36668 0.32332 0.58002 0.52998 s0.41 0.44666 0.59 0.72 s0.33 0.58334 0.45 0.93 s0.18 0.73332 0.18 1.16 c0 0.74666 -0.11 1.3867 -0.33 1.92 s-0.53666 0.99334 -0.95 1.38 z M118.76000000000002 6 l-2.36 0.000039062 l0 5.4 l2.56 0 c0.36 0 0.69 -0.06666 0.99 -0.2 s0.56 -0.31668 0.78 -0.55002 s0.39334 -0.50334 0.52 -0.81 s0.19 -0.64 0.19 -1 c0 -0.25334 -0.03666 -0.54668 -0.11 -0.88002 s-0.21 -0.64334 -0.41 -0.93 s-0.47334 -0.53 -0.82 -0.73 s-0.79332 -0.3 -1.34 -0.3 z M118.88000000000001 12.4002 l-2.48 0.000039062 l0 6.54 l2.14 0 c0.44 0 0.88 -0.05334 1.32 -0.16 s0.84 -0.28666 1.2 -0.54 s0.65 -0.58668 0.87 -1 s0.33 -0.92668 0.33 -1.54 c0 -0.56 -0.08666 -1.05 -0.26 -1.47 s-0.41334 -0.76334 -0.72 -1.03 s-0.66666 -0.46666 -1.08 -0.6 s-0.85334 -0.2 -1.32 -0.2 z"></path>
  </g>
</svg>